<?xml version="1.0" encoding="UTF-8"?>
<svg id="Layer_2" data-name="Layer 2" xmlns="http://www.w3.org/2000/svg" viewBox="0 0 63.32 64.75">
  <defs>
    <style>
      .cls-1 {
        fill: #1d1d1b;
      }
    </style>
  </defs>
  <g id="OBJECTS">
    <path class="cls-1" d="M62.72,43.64c.7.02.83-1.03.16-1.21-6.88-1.86-13.5-4.78-19.89-7.94,4.7-4.56,9.83-8.09,15.83-10.7.78-.34.21-1.53-.57-1.34-3.97,1-7.95,1.9-11.95,2.78-.68.15-5.4,1.6-6,1.27-1.67-.93-.59-1.39-.68-2.84-.25-3.69.86-7.85,1.03-11.58.17-3.88.02-7.76-.13-11.63-.02-.56-.75-.63-.93-.13-2.57,7.03-4.61,14.22-6.36,21.49-1.29,5.35-2.48,1.26-4.47-1.67-2.16-3.18-4.2-6.42-6.15-9.74-.33-.57-1.23-.19-1.06.45.9,3.53,2.08,6.96,3.49,10.32.66,1.56,1.89,3.33,2.31,4.95.57,2.25,1.41,2.01-1.68,1.57-3.82-.55-7.67-2.07-11.46-2.89-4.49-.98-9.04-1.59-13.56-2.49-.53-.11-.94.66-.4.94,7.91,4.07,16.47,8.25,25.08,10.77-6.96.86-14.02,2.97-20.73,4.84-.92.26-.72,1.62.22,1.64,3.94.13,7.88.12,11.83.09,2.01-.02,9.17-1.09,10.25.27,1.17,1.47-1.7,8.68-2.15,10.68-.93,4.09-1.79,8.17-2.5,12.3-.12.73.87,1.26,1.27.53,3.89-6.99,7.64-14.04,11.22-21.18.94,6.08,2.5,11.93,4.86,17.65.32.77,1.35.65,1.43-.19.73-6.56.61-13.03-.33-19.54,7.28,1.22,14.63,2.28,22.01,2.49Z"/>
  </g>
</svg>